ISO-10303-21;
HEADER;

/* File generated by Shapr3D Version 26.170.0.11783 */

FILE_DESCRIPTION(('HOOPS Exchange Step'),'2;1');

FILE_NAME('/private/var/mobile/Containers/Data/Application/DE921A2F-99BE-41B0-BD95-AF69C0B6FDB4/tmp/export/temp_export',
'2026-10-02T13:32:08+02:00',
('mobile'),
('Shapr3D Limited'),
'HOOPS Exchange 2026.3',
'Shapr3D',
'Authorized');

FILE_SCHEMA( ('AP242_MANAGED_MODEL_BASED_3D_ENGINEERING_MIM_LF {1 0 10303 442 1 1 4}') );

ENDSEC;

DATA;
#3=(NAMED_UNIT(*)PLANE_ANGLE_UNIT()SI_UNIT($,.RADIAN.));
#4=PLANE_ANGLE_MEASURE_WITH_UNIT(PLANE_ANGLE_MEASURE(0.0174532925),#3);
#5=(CONVERSION_BASED_UNIT('DEGREE',#4)NAMED_UNIT(#6)PLANE_ANGLE_UNIT());
#6=DIMENSIONAL_EXPONENTS(0.,0.,0.,0.,0.,0.,0.);
#7=(NAMED_UNIT(*)SI_UNIT($,.STERADIAN.)SOLID_ANGLE_UNIT());
#8=(LENGTH_UNIT()NAMED_UNIT(*)SI_UNIT(.MILLI.,.METRE.));
#9=UNCERTAINTY_MEASURE_WITH_UNIT(LENGTH_MEASURE(1.000000E-05),#8,'DISTANCE_ACCURACY_VALUE','Maximum Tolerance applied to model');
#10=(GEOMETRIC_REPRESENTATION_CONTEXT(3)GLOBAL_UNCERTAINTY_ASSIGNED_CONTEXT((#9))GLOBAL_UNIT_ASSIGNED_CONTEXT((#8,#5,#7))REPRESENTATION_CONTEXT('','root'));
#12=CARTESIAN_POINT('',(0.,0.,0.));
#13=DIRECTION('',(0.,0.,1.));
#14=DIRECTION('',(1.,0.,0.));
#15=AXIS2_PLACEMENT_3D('',#12,#13,#14);
#27=CARTESIAN_POINT('',(0.,0.,1.51));
#28=DIRECTION('',(0.,0.,1.));
#29=DIRECTION('',(0.,-1.,0.));
#30=AXIS2_PLACEMENT_3D('',#27,#28,#29);
#31=PLANE('',#30);
#32=CARTESIAN_POINT('',(109.525,-50.882150212,1.51));
#33=VERTEX_POINT('',#32);
#34=CARTESIAN_POINT('',(109.525,-48.025,1.51));
#35=VERTEX_POINT('',#34);
#36=CARTESIAN_POINT('',(109.525,-50.882150212,1.51));
#37=DIRECTION('',(0.,1.,0.));
#38=VECTOR('',#37,2.857150212);
#39=LINE('',#36,#38);
#40=EDGE_CURVE('',#33,#35,#39,.T.);
#41=ORIENTED_EDGE('',*,*,#40,.F.);
#42=CARTESIAN_POINT('',(101.695,-50.882150212,1.51));
#43=VERTEX_POINT('',#42);
#44=CARTESIAN_POINT('',(109.525,-50.882150212,1.51));
#45=DIRECTION('',(-1.,0.,0.));
#46=VECTOR('',#45,7.83);
#47=LINE('',#44,#46);
#48=EDGE_CURVE('',#33,#43,#47,.T.);
#49=ORIENTED_EDGE('',*,*,#48,.T.);
#50=CARTESIAN_POINT('',(101.695,-70.663867073,1.51));
#51=VERTEX_POINT('',#50);
#52=CARTESIAN_POINT('',(101.695,-50.882150212,1.51));
#53=DIRECTION('',(-0.,-1.,0.));
#54=VECTOR('',#53,19.781716861);
#55=LINE('',#52,#54);
#56=EDGE_CURVE('',#43,#51,#55,.T.);
#57=ORIENTED_EDGE('',*,*,#56,.T.);
#58=CARTESIAN_POINT('',(109.525,-70.663867073,1.51));
#59=VERTEX_POINT('',#58);
#60=CARTESIAN_POINT('',(101.695,-70.663867073,1.51));
#61=DIRECTION('',(1.,-0.,0.));
#62=VECTOR('',#61,7.83);
#63=LINE('',#60,#62);
#64=EDGE_CURVE('',#51,#59,#63,.T.);
#65=ORIENTED_EDGE('',*,*,#64,.T.);
#66=CARTESIAN_POINT('',(109.525,-73.525,1.51));
#67=VERTEX_POINT('',#66);
#68=CARTESIAN_POINT('',(109.525,-73.525,1.51));
#69=DIRECTION('',(0.,1.,0.));
#70=VECTOR('',#69,2.861132927);
#71=LINE('',#68,#70);
#72=EDGE_CURVE('',#67,#59,#71,.T.);
#73=ORIENTED_EDGE('',*,*,#72,.F.);
#74=CARTESIAN_POINT('',(77.525,-73.525,1.51));
#75=VERTEX_POINT('',#74);
#76=CARTESIAN_POINT('',(109.525,-73.525,1.51));
#77=DIRECTION('',(-1.,0.,0.));
#78=VECTOR('',#77,32.);
#79=LINE('',#76,#78);
#80=EDGE_CURVE('',#67,#75,#79,.T.);
#81=ORIENTED_EDGE('',*,*,#80,.T.);
#82=CARTESIAN_POINT('',(77.525,-65.743154418,1.51));
#83=VERTEX_POINT('',#82);
#84=CARTESIAN_POINT('',(77.525,-65.743154418,1.51));
#85=DIRECTION('',(-0.,-1.,0.));
#86=VECTOR('',#85,7.781845582);
#87=LINE('',#84,#86);
#88=EDGE_CURVE('',#83,#75,#87,.T.);
#89=ORIENTED_EDGE('',*,*,#88,.F.);
#90=CARTESIAN_POINT('',(94.37,-65.743154418,1.51));
#91=VERTEX_POINT('',#90);
#92=CARTESIAN_POINT('',(94.37,-65.743154418,1.51));
#93=DIRECTION('',(-1.,0.,0.));
#94=VECTOR('',#93,16.845);
#95=LINE('',#92,#94);
#96=EDGE_CURVE('',#91,#83,#95,.T.);
#97=ORIENTED_EDGE('',*,*,#96,.F.);
#98=CARTESIAN_POINT('',(94.37,-49.285,1.51));
#99=VERTEX_POINT('',#98);
#100=CARTESIAN_POINT('',(94.37,-49.285,1.51));
#101=DIRECTION('',(0.,-1.,0.));
#102=VECTOR('',#101,16.458154418);
#103=LINE('',#100,#102);
#104=EDGE_CURVE('',#99,#91,#103,.T.);
#105=ORIENTED_EDGE('',*,*,#104,.F.);
#106=CARTESIAN_POINT('',(77.525,-49.285,1.51));
#107=VERTEX_POINT('',#106);
#108=CARTESIAN_POINT('',(77.525,-49.285,1.51));
#109=DIRECTION('',(1.,0.,-0.));
#110=VECTOR('',#109,16.845);
#111=LINE('',#108,#110);
#112=EDGE_CURVE('',#107,#99,#111,.T.);
#113=ORIENTED_EDGE('',*,*,#112,.F.);
#114=CARTESIAN_POINT('',(77.525,-48.025,1.51));
#115=VERTEX_POINT('',#114);
#116=CARTESIAN_POINT('',(77.525,-48.025,1.51));
#117=DIRECTION('',(-0.,-1.,0.));
#118=VECTOR('',#117,1.26);
#119=LINE('',#116,#118);
#120=EDGE_CURVE('',#115,#107,#119,.T.);
#121=ORIENTED_EDGE('',*,*,#120,.F.);
#122=CARTESIAN_POINT('',(77.525,-48.025,1.51));
#123=DIRECTION('',(1.,0.,0.));
#124=VECTOR('',#123,32.);
#125=LINE('',#122,#124);
#126=EDGE_CURVE('',#115,#35,#125,.T.);
#127=ORIENTED_EDGE('',*,*,#126,.T.);
#128=EDGE_LOOP('',(#41,#49,#57,#65,#73,#81,#89,#97,#105,#113,#121,#127));
#129=FACE_BOUND('',#128,.T.);
#130=CARTESIAN_POINT('',(80.15,-71.5,1.51));
#131=VERTEX_POINT('',#130);
#132=CARTESIAN_POINT('',(79.15,-70.5,1.51));
#133=VERTEX_POINT('',#132);
#134=CARTESIAN_POINT('',(80.15,-70.5,1.51));
#135=DIRECTION('',(0.,0.,1.));
#136=DIRECTION('',(0.,-1.,0.));
#137=AXIS2_PLACEMENT_3D('',#134,#135,#136);
#138=CIRCLE('',#137,1.);
#139=EDGE_CURVE('',#131,#133,#138,.T.);
#140=ORIENTED_EDGE('',*,*,#139,.T.);
#141=CARTESIAN_POINT('',(80.15,-70.5,1.51));
#142=DIRECTION('',(0.,0.,1.));
#143=DIRECTION('',(0.,-1.,0.));
#144=AXIS2_PLACEMENT_3D('',#141,#142,#143);
#145=CIRCLE('',#144,1.);
#146=EDGE_CURVE('',#133,#131,#145,.T.);
#147=ORIENTED_EDGE('',*,*,#146,.T.);
#148=EDGE_LOOP('',(#140,#147));
#149=FACE_BOUND('',#148,.T.);
#150=CARTESIAN_POINT('',(98.55,-52.1,1.51));
#151=VERTEX_POINT('',#150);
#152=CARTESIAN_POINT('',(97.55,-51.1,1.51));
#153=VERTEX_POINT('',#152);
#154=CARTESIAN_POINT('',(98.55,-51.1,1.51));
#155=DIRECTION('',(0.,0.,1.));
#156=DIRECTION('',(0.,-1.,0.));
#157=AXIS2_PLACEMENT_3D('',#154,#155,#156);
#158=CIRCLE('',#157,1.);
#159=EDGE_CURVE('',#151,#153,#158,.T.);
#160=ORIENTED_EDGE('',*,*,#159,.T.);
#161=CARTESIAN_POINT('',(98.55,-51.1,1.51));
#162=DIRECTION('',(0.,0.,1.));
#163=DIRECTION('',(0.,-1.,0.));
#164=AXIS2_PLACEMENT_3D('',#161,#162,#163);
#165=CIRCLE('',#164,1.);
#166=EDGE_CURVE('',#153,#151,#165,.T.);
#167=ORIENTED_EDGE('',*,*,#166,.T.);
#168=EDGE_LOOP('',(#160,#167));
#169=FACE_BOUND('',#168,.T.);
#170=ADVANCED_FACE('',(#129,#149,#169),#31,.F.);
#171=CARTESIAN_POINT('',(76.275,-73.525,11.01));
#172=DIRECTION('',(0.,-1.,0.));
#173=DIRECTION('',(0.,0.,-1.));
#174=AXIS2_PLACEMENT_3D('',#171,#172,#173);
#175=PLANE('',#174);
#176=ORIENTED_EDGE('',*,*,#80,.F.);
#177=CARTESIAN_POINT('',(109.525,-73.525,11.01));
#178=VERTEX_POINT('',#177);
#179=CARTESIAN_POINT('',(109.525,-73.525,11.01));
#180=DIRECTION('',(0.,0.,-1.));
#181=VECTOR('',#180,9.5);
#182=LINE('',#179,#181);
#183=EDGE_CURVE('',#178,#67,#182,.T.);
#184=ORIENTED_EDGE('',*,*,#183,.F.);
#185=CARTESIAN_POINT('',(75.025,-73.525,11.01));
#186=VERTEX_POINT('',#185);
#187=CARTESIAN_POINT('',(109.525,-73.525,11.01));
#188=DIRECTION('',(-1.,0.,0.));
#189=VECTOR('',#188,34.5);
#190=LINE('',#187,#189);
#191=EDGE_CURVE('',#178,#186,#190,.T.);
#192=ORIENTED_EDGE('',*,*,#191,.T.);
#193=CARTESIAN_POINT('',(75.025,-73.525,0.01));
#194=VERTEX_POINT('',#193);
#195=CARTESIAN_POINT('',(75.025,-73.525,11.01));
#196=DIRECTION('',(0.,0.,-1.));
#197=VECTOR('',#196,11.);
#198=LINE('',#195,#197);
#199=EDGE_CURVE('',#186,#194,#198,.T.);
#200=ORIENTED_EDGE('',*,*,#199,.T.);
#201=CARTESIAN_POINT('',(77.525,-73.525,0.01));
#202=VERTEX_POINT('',#201);
#203=CARTESIAN_POINT('',(77.525,-73.525,0.01));
#204=DIRECTION('',(-1.,0.,0.));
#205=VECTOR('',#204,2.5);
#206=LINE('',#203,#205);
#207=EDGE_CURVE('',#202,#194,#206,.T.);
#208=ORIENTED_EDGE('',*,*,#207,.F.);
#209=CARTESIAN_POINT('',(77.525,-73.525,0.01));
#210=DIRECTION('',(0.,0.,1.));
#211=VECTOR('',#210,1.5);
#212=LINE('',#209,#211);
#213=EDGE_CURVE('',#202,#75,#212,.T.);
#214=ORIENTED_EDGE('',*,*,#213,.T.);
#215=EDGE_LOOP('',(#176,#184,#192,#200,#208,#214));
#216=FACE_BOUND('',#215,.T.);
#217=ADVANCED_FACE('',(#216),#175,.T.);
#218=CARTESIAN_POINT('',(109.525,-60.773008643,11.01));
#219=DIRECTION('',(-1.,0.,0.));
#220=DIRECTION('',(-0.,-1.,0.));
#221=AXIS2_PLACEMENT_3D('',#218,#219,#220);
#222=PLANE('',#221);
#223=CARTESIAN_POINT('',(109.525,-70.663867073,9.51));
#224=VERTEX_POINT('',#223);
#225=CARTESIAN_POINT('',(109.525,-50.882150212,9.51));
#226=VERTEX_POINT('',#225);
#227=CARTESIAN_POINT('',(109.525,-70.663867073,9.51));
#228=DIRECTION('',(0.,1.,0.));
#229=VECTOR('',#228,19.781716861);
#230=LINE('',#227,#229);
#231=EDGE_CURVE('',#224,#226,#230,.T.);
#232=ORIENTED_EDGE('',*,*,#231,.T.);
#233=CARTESIAN_POINT('',(109.525,-50.882150212,9.51));
#234=DIRECTION('',(0.,0.,-1.));
#235=VECTOR('',#234,8.);
#236=LINE('',#233,#235);
#237=EDGE_CURVE('',#226,#33,#236,.T.);
#238=ORIENTED_EDGE('',*,*,#237,.T.);
#239=ORIENTED_EDGE('',*,*,#40,.T.);
#240=CARTESIAN_POINT('',(109.525,-48.025,11.01));
#241=VERTEX_POINT('',#240);
#242=CARTESIAN_POINT('',(109.525,-48.025,11.01));
#243=DIRECTION('',(0.,0.,-1.));
#244=VECTOR('',#243,9.5);
#245=LINE('',#242,#244);
#246=EDGE_CURVE('',#241,#35,#245,.T.);
#247=ORIENTED_EDGE('',*,*,#246,.F.);
#248=CARTESIAN_POINT('',(109.525,-73.525,11.01));
#249=DIRECTION('',(0.,1.,0.));
#250=VECTOR('',#249,25.5);
#251=LINE('',#248,#250);
#252=EDGE_CURVE('',#178,#241,#251,.T.);
#253=ORIENTED_EDGE('',*,*,#252,.F.);
#254=ORIENTED_EDGE('',*,*,#183,.T.);
#255=ORIENTED_EDGE('',*,*,#72,.T.);
#256=CARTESIAN_POINT('',(109.525,-70.663867073,9.51));
#257=DIRECTION('',(0.,0.,-1.));
#258=VECTOR('',#257,8.);
#259=LINE('',#256,#258);
#260=EDGE_CURVE('',#224,#59,#259,.T.);
#261=ORIENTED_EDGE('',*,*,#260,.F.);
#262=EDGE_LOOP('',(#232,#238,#239,#247,#253,#254,#255,#261));
#263=FACE_BOUND('',#262,.T.);
#264=ADVANCED_FACE('',(#263),#222,.F.);
#265=CARTESIAN_POINT('',(76.275,-48.025,11.01));
#266=DIRECTION('',(-0.,1.,0.));
#267=DIRECTION('',(-1.,-0.,0.));
#268=AXIS2_PLACEMENT_3D('',#265,#266,#267);
#269=PLANE('',#268);
#270=ORIENTED_EDGE('',*,*,#126,.F.);
#271=CARTESIAN_POINT('',(77.525,-48.025,0.01));
#272=VERTEX_POINT('',#271);
#273=CARTESIAN_POINT('',(77.525,-48.025,0.01));
#274=DIRECTION('',(0.,0.,1.));
#275=VECTOR('',#274,1.5);
#276=LINE('',#273,#275);
#277=EDGE_CURVE('',#272,#115,#276,.T.);
#278=ORIENTED_EDGE('',*,*,#277,.F.);
#279=CARTESIAN_POINT('',(75.025,-48.025,0.01));
#280=VERTEX_POINT('',#279);
#281=CARTESIAN_POINT('',(75.025,-48.025,0.01));
#282=DIRECTION('',(1.,0.,0.));
#283=VECTOR('',#282,2.5);
#284=LINE('',#281,#283);
#285=EDGE_CURVE('',#280,#272,#284,.T.);
#286=ORIENTED_EDGE('',*,*,#285,.F.);
#287=CARTESIAN_POINT('',(75.025,-48.025,11.01));
#288=VERTEX_POINT('',#287);
#289=CARTESIAN_POINT('',(75.025,-48.025,11.01));
#290=DIRECTION('',(0.,0.,-1.));
#291=VECTOR('',#290,11.);
#292=LINE('',#289,#291);
#293=EDGE_CURVE('',#288,#280,#292,.T.);
#294=ORIENTED_EDGE('',*,*,#293,.F.);
#295=CARTESIAN_POINT('',(75.025,-48.025,11.01));
#296=DIRECTION('',(1.,0.,0.));
#297=VECTOR('',#296,34.5);
#298=LINE('',#295,#297);
#299=EDGE_CURVE('',#288,#241,#298,.T.);
#300=ORIENTED_EDGE('',*,*,#299,.T.);
#301=ORIENTED_EDGE('',*,*,#246,.T.);
#302=EDGE_LOOP('',(#270,#278,#286,#294,#300,#301));
#303=FACE_BOUND('',#302,.T.);
#304=ADVANCED_FACE('',(#303),#269,.T.);
#305=CARTESIAN_POINT('',(75.025,-48.655,11.01));
#306=DIRECTION('',(-1.,0.,0.));
#307=DIRECTION('',(-0.,-1.,0.));
#308=AXIS2_PLACEMENT_3D('',#305,#306,#307);
#309=PLANE('',#308);
#310=ORIENTED_EDGE('',*,*,#293,.T.);
#311=CARTESIAN_POINT('',(75.025,-49.285,0.01));
#312=VERTEX_POINT('',#311);
#313=CARTESIAN_POINT('',(75.025,-49.285,0.01));
#314=DIRECTION('',(0.,1.,0.));
#315=VECTOR('',#314,1.26);
#316=LINE('',#313,#315);
#317=EDGE_CURVE('',#312,#280,#316,.T.);
#318=ORIENTED_EDGE('',*,*,#317,.F.);
#319=CARTESIAN_POINT('',(75.025,-49.285,11.01));
#320=VERTEX_POINT('',#319);
#321=CARTESIAN_POINT('',(75.025,-49.285,11.01));
#322=DIRECTION('',(0.,0.,-1.));
#323=VECTOR('',#322,11.);
#324=LINE('',#321,#323);
#325=EDGE_CURVE('',#320,#312,#324,.T.);
#326=ORIENTED_EDGE('',*,*,#325,.F.);
#327=CARTESIAN_POINT('',(75.025,-49.285,11.01));
#328=DIRECTION('',(0.,1.,0.));
#329=VECTOR('',#328,1.26);
#330=LINE('',#327,#329);
#331=EDGE_CURVE('',#320,#288,#330,.T.);
#332=ORIENTED_EDGE('',*,*,#331,.T.);
#333=EDGE_LOOP('',(#310,#318,#326,#332));
#334=FACE_BOUND('',#333,.T.);
#335=ADVANCED_FACE('',(#334),#309,.T.);
#336=CARTESIAN_POINT('',(76.275,-49.285,11.01));
#337=DIRECTION('',(0.,1.,0.));
#338=DIRECTION('',(0.,0.,1.));
#339=AXIS2_PLACEMENT_3D('',#336,#337,#338);
#340=PLANE('',#339);
#341=ORIENTED_EDGE('',*,*,#325,.T.);
#342=CARTESIAN_POINT('',(77.525,-49.285,0.01));
#343=VERTEX_POINT('',#342);
#344=CARTESIAN_POINT('',(75.025,-49.285,0.01));
#345=DIRECTION('',(1.,0.,-0.));
#346=VECTOR('',#345,2.5);
#347=LINE('',#344,#346);
#348=EDGE_CURVE('',#312,#343,#347,.T.);
#349=ORIENTED_EDGE('',*,*,#348,.T.);
#350=CARTESIAN_POINT('',(77.525,-49.285,0.01));
#351=DIRECTION('',(0.,0.,1.));
#352=VECTOR('',#351,1.5);
#353=LINE('',#350,#352);
#354=EDGE_CURVE('',#343,#107,#353,.T.);
#355=ORIENTED_EDGE('',*,*,#354,.T.);
#356=ORIENTED_EDGE('',*,*,#112,.T.);
#357=CARTESIAN_POINT('',(94.37,-49.285,11.01));
#358=VERTEX_POINT('',#357);
#359=CARTESIAN_POINT('',(94.37,-49.285,11.01));
#360=DIRECTION('',(0.,0.,-1.));
#361=VECTOR('',#360,9.5);
#362=LINE('',#359,#361);
#363=EDGE_CURVE('',#358,#99,#362,.T.);
#364=ORIENTED_EDGE('',*,*,#363,.F.);
#365=CARTESIAN_POINT('',(75.025,-49.285,11.01));
#366=DIRECTION('',(1.,0.,-0.));
#367=VECTOR('',#366,19.345);
#368=LINE('',#365,#367);
#369=EDGE_CURVE('',#320,#358,#368,.T.);
#370=ORIENTED_EDGE('',*,*,#369,.F.);
#371=EDGE_LOOP('',(#341,#349,#355,#356,#364,#370));
#372=FACE_BOUND('',#371,.T.);
#373=ADVANCED_FACE('',(#372),#340,.F.);
#374=CARTESIAN_POINT('',(94.37,-65.674077549,11.01));
#375=DIRECTION('',(1.,0.,0.));
#376=DIRECTION('',(0.,0.,-1.));
#377=AXIS2_PLACEMENT_3D('',#374,#375,#376);
#378=PLANE('',#377);
#379=ORIENTED_EDGE('',*,*,#104,.T.);
#380=CARTESIAN_POINT('',(94.37,-65.743154418,11.01));
#381=VERTEX_POINT('',#380);
#382=CARTESIAN_POINT('',(94.37,-65.743154418,11.01));
#383=DIRECTION('',(0.,0.,-1.));
#384=VECTOR('',#383,9.5);
#385=LINE('',#382,#384);
#386=EDGE_CURVE('',#381,#91,#385,.T.);
#387=ORIENTED_EDGE('',*,*,#386,.F.);
#388=CARTESIAN_POINT('',(94.37,-49.285,11.01));
#389=DIRECTION('',(0.,-1.,0.));
#390=VECTOR('',#389,16.458154418);
#391=LINE('',#388,#390);
#392=EDGE_CURVE('',#358,#381,#391,.T.);
#393=ORIENTED_EDGE('',*,*,#392,.F.);
#394=ORIENTED_EDGE('',*,*,#363,.T.);
#395=EDGE_LOOP('',(#379,#387,#393,#394));
#396=FACE_BOUND('',#395,.T.);
#397=ADVANCED_FACE('',(#396),#378,.F.);
#398=CARTESIAN_POINT('',(76.275,-65.743154418,11.01));
#399=DIRECTION('',(0.,-1.,0.));
#400=DIRECTION('',(0.,0.,-1.));
#401=AXIS2_PLACEMENT_3D('',#398,#399,#400);
#402=PLANE('',#401);
#403=ORIENTED_EDGE('',*,*,#96,.T.);
#404=CARTESIAN_POINT('',(77.525,-65.743154418,0.01));
#405=VERTEX_POINT('',#404);
#406=CARTESIAN_POINT('',(77.525,-65.743154418,0.01));
#407=DIRECTION('',(0.,0.,1.));
#408=VECTOR('',#407,1.5);
#409=LINE('',#406,#408);
#410=EDGE_CURVE('',#405,#83,#409,.T.);
#411=ORIENTED_EDGE('',*,*,#410,.F.);
#412=CARTESIAN_POINT('',(75.025,-65.743154418,0.01));
#413=VERTEX_POINT('',#412);
#414=CARTESIAN_POINT('',(77.525,-65.743154418,0.01));
#415=DIRECTION('',(-1.,0.,0.));
#416=VECTOR('',#415,2.5);
#417=LINE('',#414,#416);
#418=EDGE_CURVE('',#405,#413,#417,.T.);
#419=ORIENTED_EDGE('',*,*,#418,.T.);
#420=CARTESIAN_POINT('',(75.025,-65.743154418,11.01));
#421=VERTEX_POINT('',#420);
#422=CARTESIAN_POINT('',(75.025,-65.743154418,11.01));
#423=DIRECTION('',(0.,0.,-1.));
#424=VECTOR('',#423,11.);
#425=LINE('',#422,#424);
#426=EDGE_CURVE('',#421,#413,#425,.T.);
#427=ORIENTED_EDGE('',*,*,#426,.F.);
#428=CARTESIAN_POINT('',(94.37,-65.743154418,11.01));
#429=DIRECTION('',(-1.,0.,0.));
#430=VECTOR('',#429,19.345);
#431=LINE('',#428,#430);
#432=EDGE_CURVE('',#381,#421,#431,.T.);
#433=ORIENTED_EDGE('',*,*,#432,.F.);
#434=ORIENTED_EDGE('',*,*,#386,.T.);
#435=EDGE_LOOP('',(#403,#411,#419,#427,#433,#434));
#436=FACE_BOUND('',#435,.T.);
#437=ADVANCED_FACE('',(#436),#402,.F.);
#438=CARTESIAN_POINT('',(75.025,-69.634077209,11.01));
#439=DIRECTION('',(-1.,0.,0.));
#440=DIRECTION('',(-0.,-1.,0.));
#441=AXIS2_PLACEMENT_3D('',#438,#439,#440);
#442=PLANE('',#441);
#443=ORIENTED_EDGE('',*,*,#426,.T.);
#444=CARTESIAN_POINT('',(75.025,-73.525,0.01));
#445=DIRECTION('',(0.,1.,0.));
#446=VECTOR('',#445,7.781845582);
#447=LINE('',#444,#446);
#448=EDGE_CURVE('',#194,#413,#447,.T.);
#449=ORIENTED_EDGE('',*,*,#448,.F.);
#450=ORIENTED_EDGE('',*,*,#199,.F.);
#451=CARTESIAN_POINT('',(75.025,-73.525,11.01));
#452=DIRECTION('',(0.,1.,0.));
#453=VECTOR('',#452,7.781845582);
#454=LINE('',#451,#453);
#455=EDGE_CURVE('',#186,#421,#454,.T.);
#456=ORIENTED_EDGE('',*,*,#455,.T.);
#457=EDGE_LOOP('',(#443,#449,#450,#456));
#458=FACE_BOUND('',#457,.T.);
#459=ADVANCED_FACE('',(#458),#442,.T.);
#460=CARTESIAN_POINT('',(0.,0.,11.01));
#461=DIRECTION('',(0.,0.,1.));
#462=DIRECTION('',(0.,-1.,0.));
#463=AXIS2_PLACEMENT_3D('',#460,#461,#462);
#464=PLANE('',#463);
#465=ORIENTED_EDGE('',*,*,#191,.F.);
#466=ORIENTED_EDGE('',*,*,#252,.T.);
#467=ORIENTED_EDGE('',*,*,#299,.F.);
#468=ORIENTED_EDGE('',*,*,#331,.F.);
#469=ORIENTED_EDGE('',*,*,#369,.T.);
#470=ORIENTED_EDGE('',*,*,#392,.T.);
#471=ORIENTED_EDGE('',*,*,#432,.T.);
#472=ORIENTED_EDGE('',*,*,#455,.F.);
#473=EDGE_LOOP('',(#465,#466,#467,#468,#469,#470,#471,#472));
#474=FACE_BOUND('',#473,.T.);
#475=ADVANCED_FACE('',(#474),#464,.T.);
#476=CARTESIAN_POINT('',(77.525,-69.634077209,0.01));
#477=DIRECTION('',(-1.,0.,0.));
#478=DIRECTION('',(-0.,-1.,0.));
#479=AXIS2_PLACEMENT_3D('',#476,#477,#478);
#480=PLANE('',#479);
#481=ORIENTED_EDGE('',*,*,#88,.T.);
#482=ORIENTED_EDGE('',*,*,#213,.F.);
#483=CARTESIAN_POINT('',(77.525,-65.743154418,0.01));
#484=DIRECTION('',(-0.,-1.,0.));
#485=VECTOR('',#484,7.781845582);
#486=LINE('',#483,#485);
#487=EDGE_CURVE('',#405,#202,#486,.T.);
#488=ORIENTED_EDGE('',*,*,#487,.F.);
#489=ORIENTED_EDGE('',*,*,#410,.T.);
#490=EDGE_LOOP('',(#481,#482,#488,#489));
#491=FACE_BOUND('',#490,.T.);
#492=ADVANCED_FACE('',(#491),#480,.F.);
#493=CARTESIAN_POINT('',(0.,0.,0.01));
#494=DIRECTION('',(0.,0.,1.));
#495=DIRECTION('',(0.,-1.,0.));
#496=AXIS2_PLACEMENT_3D('',#493,#494,#495);
#497=PLANE('',#496);
#498=ORIENTED_EDGE('',*,*,#487,.T.);
#499=ORIENTED_EDGE('',*,*,#207,.T.);
#500=ORIENTED_EDGE('',*,*,#448,.T.);
#501=ORIENTED_EDGE('',*,*,#418,.F.);
#502=EDGE_LOOP('',(#498,#499,#500,#501));
#503=FACE_BOUND('',#502,.T.);
#504=ADVANCED_FACE('',(#503),#497,.F.);
#505=CARTESIAN_POINT('',(77.525,-48.655,0.01));
#506=DIRECTION('',(-1.,0.,0.));
#507=DIRECTION('',(-0.,-1.,0.));
#508=AXIS2_PLACEMENT_3D('',#505,#506,#507);
#509=PLANE('',#508);
#510=ORIENTED_EDGE('',*,*,#120,.T.);
#511=ORIENTED_EDGE('',*,*,#354,.F.);
#512=CARTESIAN_POINT('',(77.525,-48.025,0.01));
#513=DIRECTION('',(-0.,-1.,0.));
#514=VECTOR('',#513,1.26);
#515=LINE('',#512,#514);
#516=EDGE_CURVE('',#272,#343,#515,.T.);
#517=ORIENTED_EDGE('',*,*,#516,.F.);
#518=ORIENTED_EDGE('',*,*,#277,.T.);
#519=EDGE_LOOP('',(#510,#511,#517,#518));
#520=FACE_BOUND('',#519,.T.);
#521=ADVANCED_FACE('',(#520),#509,.F.);
#522=CARTESIAN_POINT('',(0.,0.,0.01));
#523=DIRECTION('',(0.,0.,1.));
#524=DIRECTION('',(0.,-1.,0.));
#525=AXIS2_PLACEMENT_3D('',#522,#523,#524);
#526=PLANE('',#525);
#527=ORIENTED_EDGE('',*,*,#317,.T.);
#528=ORIENTED_EDGE('',*,*,#285,.T.);
#529=ORIENTED_EDGE('',*,*,#516,.T.);
#530=ORIENTED_EDGE('',*,*,#348,.F.);
#531=EDGE_LOOP('',(#527,#528,#529,#530));
#532=FACE_BOUND('',#531,.T.);
#533=ADVANCED_FACE('',(#532),#526,.F.);
#534=CARTESIAN_POINT('',(98.55,-51.1,9.51));
#535=DIRECTION('',(0.,0.,-1.));
#536=DIRECTION('',(-1.,0.,0.));
#537=AXIS2_PLACEMENT_3D('',#534,#535,#536);
#538=CYLINDRICAL_SURFACE('',#537,1.);
#539=CARTESIAN_POINT('',(97.55,-51.1,9.51));
#540=VERTEX_POINT('',#539);
#541=CARTESIAN_POINT('',(97.55,-51.1,1.51));
#542=DIRECTION('',(-0.,-0.,1.));
#543=VECTOR('',#542,8.);
#544=LINE('',#541,#543);
#545=EDGE_CURVE('',#153,#540,#544,.T.);
#546=ORIENTED_EDGE('',*,*,#545,.F.);
#547=ORIENTED_EDGE('',*,*,#159,.F.);
#548=ORIENTED_EDGE('',*,*,#166,.F.);
#549=ORIENTED_EDGE('',*,*,#545,.T.);
#550=CARTESIAN_POINT('',(98.55,-52.1,9.51));
#551=VERTEX_POINT('',#550);
#552=CARTESIAN_POINT('',(98.55,-51.1,9.51));
#553=DIRECTION('',(0.,0.,1.));
#554=DIRECTION('',(0.,-1.,0.));
#555=AXIS2_PLACEMENT_3D('',#552,#553,#554);
#556=CIRCLE('',#555,1.);
#557=EDGE_CURVE('',#540,#551,#556,.T.);
#558=ORIENTED_EDGE('',*,*,#557,.T.);
#559=CARTESIAN_POINT('',(98.55,-51.1,9.51));
#560=DIRECTION('',(0.,0.,1.));
#561=DIRECTION('',(0.,-1.,0.));
#562=AXIS2_PLACEMENT_3D('',#559,#560,#561);
#563=CIRCLE('',#562,1.);
#564=EDGE_CURVE('',#551,#540,#563,.T.);
#565=ORIENTED_EDGE('',*,*,#564,.T.);
#566=EDGE_LOOP('',(#546,#547,#548,#549,#558,#565));
#567=FACE_BOUND('',#566,.T.);
#568=ADVANCED_FACE('',(#567),#538,.F.);
#569=CARTESIAN_POINT('',(0.,0.,9.51));
#570=DIRECTION('',(0.,0.,1.));
#571=DIRECTION('',(0.,-1.,0.));
#572=AXIS2_PLACEMENT_3D('',#569,#570,#571);
#573=PLANE('',#572);
#574=ORIENTED_EDGE('',*,*,#557,.F.);
#575=ORIENTED_EDGE('',*,*,#564,.F.);
#576=EDGE_LOOP('',(#574,#575));
#577=FACE_BOUND('',#576,.T.);
#578=ADVANCED_FACE('',(#577),#573,.F.);
#579=CARTESIAN_POINT('',(80.15,-70.5,9.51));
#580=DIRECTION('',(0.,0.,-1.));
#581=DIRECTION('',(-1.,0.,0.));
#582=AXIS2_PLACEMENT_3D('',#579,#580,#581);
#583=CYLINDRICAL_SURFACE('',#582,1.);
#584=CARTESIAN_POINT('',(79.15,-70.5,9.51));
#585=VERTEX_POINT('',#584);
#586=CARTESIAN_POINT('',(79.15,-70.5,1.51));
#587=DIRECTION('',(-0.,-0.,1.));
#588=VECTOR('',#587,8.);
#589=LINE('',#586,#588);
#590=EDGE_CURVE('',#133,#585,#589,.T.);
#591=ORIENTED_EDGE('',*,*,#590,.F.);
#592=ORIENTED_EDGE('',*,*,#139,.F.);
#593=ORIENTED_EDGE('',*,*,#146,.F.);
#594=ORIENTED_EDGE('',*,*,#590,.T.);
#595=CARTESIAN_POINT('',(80.15,-71.5,9.51));
#596=VERTEX_POINT('',#595);
#597=CARTESIAN_POINT('',(80.15,-70.5,9.51));
#598=DIRECTION('',(0.,0.,1.));
#599=DIRECTION('',(0.,-1.,0.));
#600=AXIS2_PLACEMENT_3D('',#597,#598,#599);
#601=CIRCLE('',#600,1.);
#602=EDGE_CURVE('',#585,#596,#601,.T.);
#603=ORIENTED_EDGE('',*,*,#602,.T.);
#604=CARTESIAN_POINT('',(80.15,-70.5,9.51));
#605=DIRECTION('',(0.,0.,1.));
#606=DIRECTION('',(0.,-1.,0.));
#607=AXIS2_PLACEMENT_3D('',#604,#605,#606);
#608=CIRCLE('',#607,1.);
#609=EDGE_CURVE('',#596,#585,#608,.T.);
#610=ORIENTED_EDGE('',*,*,#609,.T.);
#611=EDGE_LOOP('',(#591,#592,#593,#594,#603,#610));
#612=FACE_BOUND('',#611,.T.);
#613=ADVANCED_FACE('',(#612),#583,.F.);
#614=CARTESIAN_POINT('',(0.,0.,9.51));
#615=DIRECTION('',(0.,0.,1.));
#616=DIRECTION('',(0.,-1.,0.));
#617=AXIS2_PLACEMENT_3D('',#614,#615,#616);
#618=PLANE('',#617);
#619=ORIENTED_EDGE('',*,*,#602,.F.);
#620=ORIENTED_EDGE('',*,*,#609,.F.);
#621=EDGE_LOOP('',(#619,#620));
#622=FACE_BOUND('',#621,.T.);
#623=ADVANCED_FACE('',(#622),#618,.F.);
#624=CARTESIAN_POINT('',(101.695,-60.773008643,9.51));
#625=DIRECTION('',(1.,-0.,0.));
#626=DIRECTION('',(0.,1.,0.));
#627=AXIS2_PLACEMENT_3D('',#624,#625,#626);
#628=PLANE('',#627);
#629=ORIENTED_EDGE('',*,*,#56,.F.);
#630=CARTESIAN_POINT('',(101.695,-50.882150212,9.51));
#631=VERTEX_POINT('',#630);
#632=CARTESIAN_POINT('',(101.695,-50.882150212,9.51));
#633=DIRECTION('',(0.,0.,-1.));
#634=VECTOR('',#633,8.);
#635=LINE('',#632,#634);
#636=EDGE_CURVE('',#631,#43,#635,.T.);
#637=ORIENTED_EDGE('',*,*,#636,.F.);
#638=CARTESIAN_POINT('',(101.695,-70.663867073,9.51));
#639=VERTEX_POINT('',#638);
#640=CARTESIAN_POINT('',(101.695,-50.882150212,9.51));
#641=DIRECTION('',(-0.,-1.,0.));
#642=VECTOR('',#641,19.781716861);
#643=LINE('',#640,#642);
#644=EDGE_CURVE('',#631,#639,#643,.T.);
#645=ORIENTED_EDGE('',*,*,#644,.T.);
#646=CARTESIAN_POINT('',(101.695,-70.663867073,9.51));
#647=DIRECTION('',(0.,0.,-1.));
#648=VECTOR('',#647,8.);
#649=LINE('',#646,#648);
#650=EDGE_CURVE('',#639,#51,#649,.T.);
#651=ORIENTED_EDGE('',*,*,#650,.T.);
#652=EDGE_LOOP('',(#629,#637,#645,#651));
#653=FACE_BOUND('',#652,.T.);
#654=ADVANCED_FACE('',(#653),#628,.T.);
#655=CARTESIAN_POINT('',(105.61,-70.663867073,9.51));
#656=DIRECTION('',(0.,1.,0.));
#657=DIRECTION('',(-1.,0.,0.));
#658=AXIS2_PLACEMENT_3D('',#655,#656,#657);
#659=PLANE('',#658);
#660=ORIENTED_EDGE('',*,*,#64,.F.);
#661=ORIENTED_EDGE('',*,*,#650,.F.);
#662=CARTESIAN_POINT('',(101.695,-70.663867073,9.51));
#663=DIRECTION('',(1.,-0.,0.));
#664=VECTOR('',#663,7.83);
#665=LINE('',#662,#664);
#666=EDGE_CURVE('',#639,#224,#665,.T.);
#667=ORIENTED_EDGE('',*,*,#666,.T.);
#668=ORIENTED_EDGE('',*,*,#260,.T.);
#669=EDGE_LOOP('',(#660,#661,#667,#668));
#670=FACE_BOUND('',#669,.T.);
#671=ADVANCED_FACE('',(#670),#659,.T.);
#672=CARTESIAN_POINT('',(105.61,-50.882150212,9.51));
#673=DIRECTION('',(-0.,-1.,0.));
#674=DIRECTION('',(1.,-0.,0.));
#675=AXIS2_PLACEMENT_3D('',#672,#673,#674);
#676=PLANE('',#675);
#677=ORIENTED_EDGE('',*,*,#48,.F.);
#678=ORIENTED_EDGE('',*,*,#237,.F.);
#679=CARTESIAN_POINT('',(109.525,-50.882150212,9.51));
#680=DIRECTION('',(-1.,0.,0.));
#681=VECTOR('',#680,7.83);
#682=LINE('',#679,#681);
#683=EDGE_CURVE('',#226,#631,#682,.T.);
#684=ORIENTED_EDGE('',*,*,#683,.T.);
#685=ORIENTED_EDGE('',*,*,#636,.T.);
#686=EDGE_LOOP('',(#677,#678,#684,#685));
#687=FACE_BOUND('',#686,.T.);
#688=ADVANCED_FACE('',(#687),#676,.T.);
#689=CARTESIAN_POINT('',(0.,0.,9.51));
#690=DIRECTION('',(0.,0.,1.));
#691=DIRECTION('',(0.,-1.,0.));
#692=AXIS2_PLACEMENT_3D('',#689,#690,#691);
#693=PLANE('',#692);
#694=ORIENTED_EDGE('',*,*,#644,.F.);
#695=ORIENTED_EDGE('',*,*,#683,.F.);
#696=ORIENTED_EDGE('',*,*,#231,.F.);
#697=ORIENTED_EDGE('',*,*,#666,.F.);
#698=EDGE_LOOP('',(#694,#695,#696,#697));
#699=FACE_BOUND('',#698,.T.);
#700=ADVANCED_FACE('',(#699),#693,.F.);
#701=CLOSED_SHELL('',(#170,#217,#264,#304,#335,#373,#397,#437,#459,#475,#492,#504,#521,#533,#568,#578,#613,#623,#654,#671,#688,#700));
#702=MANIFOLD_SOLID_BREP('Body 225',#701);
#703=COLOUR_RGB('',0.627451003,0.627451003,0.643137276);
#704=FILL_AREA_STYLE_COLOUR('',#703);
#705=FILL_AREA_STYLE('',(#704));
#706=SURFACE_STYLE_FILL_AREA(#705);
#707=SURFACE_SIDE_STYLE('',(#706));
#708=SURFACE_STYLE_USAGE(.BOTH.,#707);
#709=PRESENTATION_STYLE_ASSIGNMENT((#708));
#26=STYLED_ITEM('',(#709),#702);
#16=SHAPE_REPRESENTATION('root',(#15),#10);
#17=ADVANCED_BREP_SHAPE_REPRESENTATION('root',(#702),#10);
#717=SHAPE_REPRESENTATION_RELATIONSHIP('','',#16,#17);
#718=CARTESIAN_POINT('',(0.,0.,0.));
#719=DIRECTION('',(0.,0.,1.));
#720=DIRECTION('',(1.,0.,0.));
#721=AXIS2_PLACEMENT_3D('',#718,#719,#720);
#723=MAPPED_ITEM('',#722,#721);
#722=REPRESENTATION_MAP(#721,#16);
#724=APPLICATION_CONTEXT('Managed model based 3d engineering');
#725=APPLICATION_PROTOCOL_DEFINITION('international standard','ap242_managed_model_based_3d_engineering',2014,#724);
#726=PRODUCT_CONTEXT('',#724,'mechanical');
#727=PRODUCT_DEFINITION_CONTEXT('part definition',#724,'design');
#24=PRODUCT('root','root','',(#726));
#728=PRODUCT_RELATED_PRODUCT_CATEGORY('part','',(#24));
#729=PRODUCT_DEFINITION_FORMATION_WITH_SPECIFIED_SOURCE('','',#24,.NOT_KNOWN.);
#25=PRODUCT_DEFINITION('design','',#729,#727);
#23=PRODUCT_DEFINITION_SHAPE('','',#25);
#730=SHAPE_DEFINITION_REPRESENTATION(#23,#16);
#11=DRAUGHTING_MODEL('',(#723),#10);
#731=DESCRIPTIVE_REPRESENTATION_ITEM('KEY','/private/var/mobile/Containers/Data/Application/DE921A2F-99BE-41B0-BD95-AF69C0B6FDB4/tmp/4C2CF78B-27D2-4D7E-A788-BDA2C27AD4EB.tmp');
#732=PROPERTY_DEFINITION('KEY','',#25);
#733=REPRESENTATION('',(#731),#10);
#734=PROPERTY_DEFINITION_REPRESENTATION(#732,#733);
#735=GENERAL_PROPERTY('','KEY','');
#736=GENERAL_PROPERTY_ASSOCIATION('','',#735,#732);
#1=MECHANICAL_DESIGN_GEOMETRIC_PRESENTATION_REPRESENTATION('',(#26),#10);
ENDSEC;
END-ISO-10303-21;
